# xmcd
#
# Track frame offsets:
# 150
# 7890
# 11637
# 14287
# 27487
# 38610
# 50920
# 66165
# 82645
# 92000
# 102700
# 114275
# 126687
# 139270
# 151762
# 163550
# 176687
# 191512
# 207025
# 220525
# 231837
# 246162
# 264480
# 278462
#
# Disc length: 3895 seconds
#
# Revision: 0
# Processed by: cddbd v1.4PL0 Copyright (c) Steve Scherf et al.
# Submitted via: MacMP3 Pro 5.0 (http://mp3.act2.co.jp/)
#
DISCID=3d0f3518
DTITLE=etc. - Anime Syudaika Daizensyu 07
DYEAR=1900
DGENRE=
TTITLE0=MOOMIN no THEME
TTITLE1=NONON no THEME
TTITLE2=PAPA no Uta
TTITLE3=ATTACK No.1 no THEME
TTITLE4=TIME Bokan
TTITLE5=Soreyuke Gaikottsu
TTITLE6=Yattah MAN no Uta
TTITLE7=Tensai Doronbou
TTITLE8=BABA FAMILY no Uta
TTITLE9=BABA Pikari no Uta
TTITLE10=Nanjara Monjara
TTITLE11=Kangae MARCH
TTITLE12=Huhhu Yume Yume
TTITLE13=Gomensourou
TTITLE14=Kamisama Oshiete
TTITLE15=Sutekina Koibitotachi
TTITLE16=NILS no Hushigina Tabi
TTITLE17=Itsumademo Tomodachi
TTITLE18=Ougon Senshi GOLD Lighten
TTITLE19=MECHANICAL DANCING FIGHT
TTITLE20=MACROSS
TTITLE21=RUNNER
TTITLE22=Atsumare Yukaina Ninjatachi
TTITLE23=Haiyah! Ippei Go and Go
EXTD=
EXTT0=
EXTT1=
EXTT2=
EXTT3=
EXTT4=
EXTT5=
EXTT6=
EXTT7=
EXTT8=
EXTT9=
EXTT10=
EXTT11=
EXTT12=
EXTT13=
EXTT14=
EXTT15=
EXTT16=
EXTT17=
EXTT18=
EXTT19=
EXTT20=
EXTT21=
EXTT22=
EXTT23=
PLAYORDER=
